<mxfile host="Electron" agent="Mozilla/5.0 (Macintosh; Intel Mac OS X 10_15_7) AppleWebKit/537.36 (KHTML, like Gecko) draw.io/26.1.1 Chrome/132.0.6834.210 Electron/34.3.3 Safari/537.36" version="26.1.1">
  <diagram name="Page-1" id="-H_mtQnk-PTXWXPvYvuk">
    <mxGraphModel dx="954" dy="727" grid="1" gridSize="10" guides="1" tooltips="1" connect="1" arrows="1" fold="1" page="1" pageScale="1" pageWidth="1169" pageHeight="827" math="0" shadow="0">
      <root>
        <mxCell id="0" />
        <mxCell id="1" parent="0" />
        <mxCell id="k_xwfJecmbTnGhpivg_c-1" style="edgeStyle=orthogonalEdgeStyle;rounded=0;orthogonalLoop=1;jettySize=auto;html=1;exitX=0.5;exitY=1;exitDx=0;exitDy=0;entryX=0.5;entryY=0;entryDx=0;entryDy=0;" parent="1" source="zA23MoTUsTF4_91t8viU-3" target="dbREd8kYVU3tzgiQIXqs-3" edge="1">
          <mxGeometry relative="1" as="geometry" />
        </mxCell>
        <mxCell id="zA23MoTUsTF4_91t8viU-3" value="pymongo-api" style="rounded=1;whiteSpace=wrap;html=1;" parent="1" vertex="1">
          <mxGeometry x="480" y="180" width="120" height="60" as="geometry" />
        </mxCell>
        <mxCell id="dbREd8kYVU3tzgiQIXqs-1" value="mongodb shard 000" style="shape=cylinder3;whiteSpace=wrap;html=1;boundedLbl=1;backgroundOutline=1;size=15;" parent="1" vertex="1">
          <mxGeometry x="190" y="520" width="60" height="80" as="geometry" />
        </mxCell>
        <mxCell id="_al5clU8z6GfftOGp_AF-12" value="" style="edgeStyle=orthogonalEdgeStyle;rounded=0;orthogonalLoop=1;jettySize=auto;html=1;" parent="1" source="dbREd8kYVU3tzgiQIXqs-2" target="_al5clU8z6GfftOGp_AF-4" edge="1">
          <mxGeometry relative="1" as="geometry" />
        </mxCell>
        <mxCell id="dbREd8kYVU3tzgiQIXqs-2" value="mongodb shard 100" style="shape=cylinder3;whiteSpace=wrap;html=1;boundedLbl=1;backgroundOutline=1;size=15;" parent="1" vertex="1">
          <mxGeometry x="830" y="520" width="60" height="80" as="geometry" />
        </mxCell>
        <mxCell id="AS32IQcmRUs63zj48uzP-3" style="edgeStyle=orthogonalEdgeStyle;rounded=0;orthogonalLoop=1;jettySize=auto;html=1;exitX=0.5;exitY=1;exitDx=0;exitDy=0;entryX=0.5;entryY=0;entryDx=0;entryDy=0;" edge="1" parent="1" source="dbREd8kYVU3tzgiQIXqs-3" target="dbREd8kYVU3tzgiQIXqs-5">
          <mxGeometry relative="1" as="geometry" />
        </mxCell>
        <mxCell id="dbREd8kYVU3tzgiQIXqs-3" value="Драйвер" style="rounded=1;whiteSpace=wrap;html=1;" parent="1" vertex="1">
          <mxGeometry x="480" y="300" width="120" height="40" as="geometry" />
        </mxCell>
        <mxCell id="AS32IQcmRUs63zj48uzP-5" style="edgeStyle=orthogonalEdgeStyle;rounded=0;orthogonalLoop=1;jettySize=auto;html=1;exitX=1;exitY=0.5;exitDx=0;exitDy=0;entryX=0.5;entryY=0;entryDx=0;entryDy=0;" edge="1" parent="1" source="dbREd8kYVU3tzgiQIXqs-5" target="pXJ7bdGz6Sk2BNIV2tW--5">
          <mxGeometry relative="1" as="geometry" />
        </mxCell>
        <mxCell id="AS32IQcmRUs63zj48uzP-6" style="edgeStyle=orthogonalEdgeStyle;rounded=0;orthogonalLoop=1;jettySize=auto;html=1;exitX=0;exitY=0.5;exitDx=0;exitDy=0;entryX=0.5;entryY=0;entryDx=0;entryDy=0;" edge="1" parent="1" source="dbREd8kYVU3tzgiQIXqs-5" target="pXJ7bdGz6Sk2BNIV2tW--1">
          <mxGeometry relative="1" as="geometry" />
        </mxCell>
        <mxCell id="AS32IQcmRUs63zj48uzP-7" style="edgeStyle=orthogonalEdgeStyle;rounded=0;orthogonalLoop=1;jettySize=auto;html=1;exitX=0.5;exitY=1;exitDx=0;exitDy=0;" edge="1" parent="1" source="dbREd8kYVU3tzgiQIXqs-5" target="dbREd8kYVU3tzgiQIXqs-7">
          <mxGeometry relative="1" as="geometry" />
        </mxCell>
        <mxCell id="dbREd8kYVU3tzgiQIXqs-5" value="mongodb router" style="rounded=1;whiteSpace=wrap;html=1;" parent="1" vertex="1">
          <mxGeometry x="480" y="400" width="120" height="40" as="geometry" />
        </mxCell>
        <mxCell id="dbREd8kYVU3tzgiQIXqs-13" style="edgeStyle=orthogonalEdgeStyle;rounded=0;orthogonalLoop=1;jettySize=auto;html=1;exitX=0.5;exitY=1;exitDx=0;exitDy=0;" parent="1" edge="1">
          <mxGeometry relative="1" as="geometry">
            <mxPoint x="1490" y="430" as="sourcePoint" />
            <mxPoint x="1490" y="510" as="targetPoint" />
          </mxGeometry>
        </mxCell>
        <mxCell id="dbREd8kYVU3tzgiQIXqs-7" value="mongodb config server" style="rounded=1;whiteSpace=wrap;html=1;" parent="1" vertex="1">
          <mxGeometry x="480" y="540" width="120" height="40" as="geometry" />
        </mxCell>
        <mxCell id="_al5clU8z6GfftOGp_AF-1" value="mongodb shard 001" style="shape=cylinder3;whiteSpace=wrap;html=1;boundedLbl=1;backgroundOutline=1;size=15;" parent="1" vertex="1">
          <mxGeometry x="70" y="520" width="60" height="80" as="geometry" />
        </mxCell>
        <mxCell id="_al5clU8z6GfftOGp_AF-2" value="mongodb shard 002" style="shape=cylinder3;whiteSpace=wrap;html=1;boundedLbl=1;backgroundOutline=1;size=15;" parent="1" vertex="1">
          <mxGeometry x="310" y="520" width="60" height="80" as="geometry" />
        </mxCell>
        <mxCell id="_al5clU8z6GfftOGp_AF-3" value="mongodb shard 101" style="shape=cylinder3;whiteSpace=wrap;html=1;boundedLbl=1;backgroundOutline=1;size=15;" parent="1" vertex="1">
          <mxGeometry x="710" y="520" width="60" height="80" as="geometry" />
        </mxCell>
        <mxCell id="_al5clU8z6GfftOGp_AF-4" value="mongodb shard 102" style="shape=cylinder3;whiteSpace=wrap;html=1;boundedLbl=1;backgroundOutline=1;size=15;" parent="1" vertex="1">
          <mxGeometry x="950" y="520" width="60" height="80" as="geometry" />
        </mxCell>
        <mxCell id="_al5clU8z6GfftOGp_AF-9" style="edgeStyle=orthogonalEdgeStyle;rounded=0;orthogonalLoop=1;jettySize=auto;html=1;exitX=0;exitY=0.5;exitDx=0;exitDy=0;exitPerimeter=0;entryX=1;entryY=0.5;entryDx=0;entryDy=0;entryPerimeter=0;" parent="1" source="dbREd8kYVU3tzgiQIXqs-1" target="_al5clU8z6GfftOGp_AF-1" edge="1">
          <mxGeometry relative="1" as="geometry" />
        </mxCell>
        <mxCell id="_al5clU8z6GfftOGp_AF-10" style="edgeStyle=orthogonalEdgeStyle;rounded=0;orthogonalLoop=1;jettySize=auto;html=1;exitX=1;exitY=0.5;exitDx=0;exitDy=0;exitPerimeter=0;entryX=0;entryY=0.5;entryDx=0;entryDy=0;entryPerimeter=0;" parent="1" source="dbREd8kYVU3tzgiQIXqs-1" target="_al5clU8z6GfftOGp_AF-2" edge="1">
          <mxGeometry relative="1" as="geometry" />
        </mxCell>
        <mxCell id="_al5clU8z6GfftOGp_AF-11" style="edgeStyle=orthogonalEdgeStyle;rounded=0;orthogonalLoop=1;jettySize=auto;html=1;exitX=0;exitY=0.5;exitDx=0;exitDy=0;exitPerimeter=0;entryX=1;entryY=0.5;entryDx=0;entryDy=0;entryPerimeter=0;" parent="1" source="dbREd8kYVU3tzgiQIXqs-2" target="_al5clU8z6GfftOGp_AF-3" edge="1">
          <mxGeometry relative="1" as="geometry" />
        </mxCell>
        <mxCell id="AS32IQcmRUs63zj48uzP-8" style="edgeStyle=orthogonalEdgeStyle;rounded=0;orthogonalLoop=1;jettySize=auto;html=1;exitX=1;exitY=0.5;exitDx=0;exitDy=0;entryX=0;entryY=0.5;entryDx=0;entryDy=0;" edge="1" parent="1" source="pXJ7bdGz6Sk2BNIV2tW--1" target="dbREd8kYVU3tzgiQIXqs-7">
          <mxGeometry relative="1" as="geometry" />
        </mxCell>
        <mxCell id="pXJ7bdGz6Sk2BNIV2tW--1" value="replicaset 0" style="swimlane;whiteSpace=wrap;html=1;" parent="1" vertex="1">
          <mxGeometry x="40" y="480" width="360" height="160" as="geometry" />
        </mxCell>
        <mxCell id="AS32IQcmRUs63zj48uzP-9" style="edgeStyle=orthogonalEdgeStyle;rounded=0;orthogonalLoop=1;jettySize=auto;html=1;exitX=0;exitY=0.5;exitDx=0;exitDy=0;entryX=1;entryY=0.5;entryDx=0;entryDy=0;" edge="1" parent="1" source="pXJ7bdGz6Sk2BNIV2tW--5" target="dbREd8kYVU3tzgiQIXqs-7">
          <mxGeometry relative="1" as="geometry" />
        </mxCell>
        <mxCell id="pXJ7bdGz6Sk2BNIV2tW--5" value="replicaset 1" style="swimlane;whiteSpace=wrap;html=1;" parent="1" vertex="1">
          <mxGeometry x="680" y="480" width="360" height="160" as="geometry" />
        </mxCell>
      </root>
    </mxGraphModel>
  </diagram>
</mxfile>
